<svg xmlns="http://www.w3.org/2000/svg" viewBox="0 0 81.52 81.52"><g id="レイヤー_2" data-name="レイヤー 2"><g id="ロゴ"><g id="ミニロゴ"><path d="M76.08,38h5.44a38,38,0,0,0-38-38V5.43A32.61,32.61,0,0,1,76.08,38Z" style="fill:#db062c"/><path d="M43.48,5.43v5.44A27.17,27.17,0,0,1,70.65,38h5.43A32.61,32.61,0,0,0,43.48,5.43Z" style="fill:#ef7a00"/><path d="M43.48,10.87V16.3A21.74,21.74,0,0,1,65.21,38h5.44A27.17,27.17,0,0,0,43.48,10.87Z" style="fill:#f3eb1c"/><path d="M43.48,16.3v5.44A16.3,16.3,0,0,1,59.78,38h5.43A21.74,21.74,0,0,0,43.48,16.3Z" style="fill:#009c4d"/><path d="M43.48,21.74v5.43A10.87,10.87,0,0,1,54.34,38h5.44A16.3,16.3,0,0,0,43.48,21.74Z" style="fill:#4fc2f1"/><path d="M43.48,27.17v5.44A5.43,5.43,0,0,1,48.91,38h5.43A10.87,10.87,0,0,0,43.48,27.17Z" style="fill:#0065b2"/><path d="M43.48,32.61V38h5.43A5.43,5.43,0,0,0,43.48,32.61Z" style="fill:#643791"/><path d="M76.08,43.48H38v-38A38.05,38.05,0,0,0,6.92,65.36L0,81.52l16.15-6.93A38,38,0,0,0,76.08,43.48ZM20.72,42.12a10.53,10.53,0,0,1,0-21.06,10.42,10.42,0,0,1,4.5,1h-.09a5.78,5.78,0,1,0,5.71,6.63A10.5,10.5,0,0,1,20.72,42.12Z" style="fill:#2d4b71"/><path d="M25.13,33.63a5.78,5.78,0,0,1,0-11.55h.09a10.51,10.51,0,0,0-15,9.51,10.53,10.53,0,1,0,20.65-2.88A5.78,5.78,0,0,1,25.13,33.63Z" style="fill:#fff"/></g></g></g></svg>